<svg width="18" height="16" viewBox="0 0 18 16" fill="none" xmlns="http://www.w3.org/2000/svg">
<path fill-rule="evenodd" clip-rule="evenodd" d="M8.58564 15.4012L8.9998 15.7668L9.41398 15.4012C12.6458 12.7494 14.7148 10.9435 15.9738 9.41456C17.2437 7.87232 17.6998 6.59943 17.6998 5.02158C17.6998 2.43778 15.6213 0.300049 13.0186 0.300049C10.9969 0.300049 9.79377 1.39524 8.9998 2.27943C8.20584 1.39524 7.00271 0.300049 4.98097 0.300049C2.41588 0.300049 0.299805 2.39982 0.299805 5.02158C0.299805 6.59943 0.755901 7.87232 2.02585 9.41456C3.28486 10.9435 5.3538 12.7494 8.58564 15.4012ZM16.1691 1.80842C15.3619 1.00151 14.2513 0.500049 13.0186 0.500049C11.0699 0.500049 9.91475 1.55691 9.13328 2.43017C9.08754 2.48128 9.04308 2.53177 8.99982 2.58137C8.99988 2.58144 8.99994 2.58151 9 2.58158C9.78243 1.68445 10.9561 0.500244 13.0188 0.500244C14.2514 0.500244 15.3619 1.00163 16.1691 1.80842ZM3.35551 10.5678C1.19891 8.41022 0.5 6.95346 0.5 5.02177C0.5 2.50981 2.52719 0.500244 4.98117 0.500244C6.62128 0.500244 7.6993 1.24889 8.4655 2.00663C7.69928 1.24882 6.62122 0.500049 4.98097 0.500049C2.527 0.500049 0.499805 2.50962 0.499805 5.02158C0.499805 6.95333 1.19876 8.41011 3.35551 10.5678ZM7.86204 2.71005C8.08275 2.93042 8.2811 3.15727 8.46633 3.37086L8.9998 3.98091L8.99982 3.9809L8.46653 3.37106C8.28124 3.1574 8.08282 2.93049 7.86204 2.71005ZM4.02018 9.90815C5.17594 11.0638 6.79002 12.4508 8.9998 14.28C14.9391 9.36369 16.5751 7.6412 16.5751 5.02158C16.5751 4.03286 16.1735 3.13419 15.5267 2.48348C16.1736 3.13421 16.5753 4.03295 16.5753 5.02177C16.5753 7.64139 14.9393 9.36388 9 14.2802C6.79009 12.4509 5.17595 11.0638 4.02018 9.90815ZM14.8615 8.66099C13.7402 9.99767 11.8987 11.618 8.9998 14.0203C6.1009 11.618 4.2594 9.99767 3.13812 8.66099C2.00994 7.31607 1.62449 6.27455 1.62449 5.02158C1.62449 3.15666 3.13705 1.63306 4.98097 1.63306C6.66133 1.63306 7.56896 2.64133 8.31578 3.50252L8.9998 4.28473L9.68437 3.50189C10.4312 2.6407 11.3383 1.63306 13.0186 1.63306C14.8626 1.63306 16.3751 3.15666 16.3751 5.02158C16.3751 6.27455 15.9897 7.31607 14.8615 8.66099Z" fill="#191919"/>
</svg>
